<svg width="571" height="552" viewBox="0 0 571 552" fill="none" xmlns="http://www.w3.org/2000/svg">
<path d="M357.783 277.008C358.202 293.145 360.812 307.998 363.345 322.856C366.194 339.561 368.431 356.398 367.396 373.315C365.817 399.06 355.527 421.863 341.293 442.957C323.956 468.65 302.766 490.436 274.453 503.93C260.384 510.635 245.47 516.538 229.906 517.739C196.069 520.353 169.116 508.159 149.163 479.382C130.198 452.027 123.606 422.224 124.439 389.704C124.927 370.761 128.307 352.477 133.86 334.531C143.008 304.979 162.535 285.205 190.903 273.061C217.471 261.685 244.861 252.484 272.517 241.084C250.285 233.758 228.315 229.009 206.156 224.085C208.828 237.8 203.748 245.147 189.17 249.566C163.069 257.471 142.022 247.589 123.858 230.005C114.58 221.022 116.184 201.227 125.841 189.125C131.158 182.461 137.888 177.49 145.978 174.669C151.519 172.738 153.306 169.617 152.472 163.509C151.169 154.007 148.999 144.31 153.493 134.838C161.261 118.48 179.571 109.558 199.636 112.932C213.969 115.342 226.175 121.443 234.809 133.762C242.069 144.122 237.962 154.733 235.71 165.145C235.063 168.148 235.532 168.978 237.773 170.089C262.077 182.161 286.589 193.783 311.558 204.429C314.366 205.626 315.916 204.963 317.76 202.688C329.162 188.616 336.758 172.531 343.095 155.742C343.928 153.535 343.676 152.643 341.252 151.311C319.83 139.518 314.464 121.321 321.107 101.664C327.65 82.3163 351.459 69.7479 370.913 74.3864C383.621 77.4167 394.752 90.8914 394.955 104.65C395.038 110.239 396.722 111.928 402.062 111.391C405.843 111.009 409.712 111.579 413.539 111.549C431.237 111.401 445.438 128.967 436.48 151.624C429.72 168.729 413.991 176.792 395.875 173.579C393.597 173.178 392.37 172.938 391.015 175.322C383.525 188.511 376.217 201.746 370.99 216.076C369.097 221.273 369.329 223.431 375.546 224.412C395.836 227.61 416.044 231.34 436.237 235.122C439.205 235.678 439.575 234.395 440.346 232.317C446.604 215.461 465.323 207.978 483.663 214.802C500.862 221.198 512.421 233.193 519.461 249.756C526.437 266.175 518.412 279.8 499.769 283.713C489.222 285.927 489.284 285.936 487.885 296.663C486.951 303.803 488.882 310.604 490.199 317.447C491.57 324.579 492.425 331.676 492.38 338.973C492.281 356.004 483.377 367.737 469.482 375.615C455.046 383.799 440.808 381.434 427.473 371.863C409.219 358.766 398.614 342.179 402.558 318.746C402.893 316.768 403.574 314.819 404.33 312.955C405.113 311.03 405.024 309.787 403.103 308.434C389.045 298.56 375.082 288.549 361.071 278.606C360.369 278.109 359.511 277.835 357.783 277.008Z" fill="#010101"/>
<path d="M168.397 490.85C149.933 472.776 135.581 452.293 131.358 426.129C126.091 393.498 127.569 361.328 139.037 330.035C147.486 306.981 163.143 290.708 185.589 280.652C211.007 269.263 237.847 261.534 263.288 250.316C276.662 244.421 289.019 244.54 302.096 250.661C309.814 254.272 318.165 256.527 325.794 260.476C328.73 262.373 327.935 265.254 327.525 267.854C322.729 298.247 317.557 328.559 309.794 358.383C300.63 393.603 282.294 423.522 258.251 450.458C245.339 464.923 230.434 475.795 212.537 483.505C201.963 488.061 191.469 491.443 180.155 492.731C176.043 493.199 172.013 493.385 168.397 490.85Z" fill="#E97E46"/>
<path d="M427.632 268.401C428.218 269.835 428.552 271.662 430.724 271.213C432.37 270.873 432.546 269.408 432.59 268.02C432.715 263.744 433.812 260.07 437.893 257.75C444.243 254.139 446.152 248.089 446.739 241.264C447.023 237.977 446.442 234.378 449.15 231.662C453.049 226.214 458.536 224.149 465.015 224.253C478.415 224.464 489.079 229.957 496.361 241.246C503.431 252.217 500.305 262.879 487.387 273.395C481.747 285.115 478.136 297.09 480.702 310.41C482.621 320.375 484.584 330.384 483.788 340.695C481.693 367.698 454.242 381.369 431.746 366.518C413.496 354.471 404.96 335.831 408.987 316.753C410.174 311.145 413.056 306.254 415.68 301.253C416.365 299.943 417.683 298.268 415.713 297.179C414.374 296.441 413.161 297.745 412.352 298.839C410.611 301.189 408.977 303.614 407.117 306.266C391.964 291.112 374.845 278.965 356.628 268.508C326.377 251.143 293.316 240.94 259.833 231.987C242.149 227.259 224.003 224.544 206.297 220.079C198.37 218.078 190.325 218.782 182.587 216.645C181.776 216.423 180.849 216.609 178.857 216.603C182.904 220.297 187.387 219.436 191.059 220.813C194.168 221.983 198.906 220 200.118 224.881C201.348 229.832 199.034 233.922 195.397 236.866C185.605 244.792 174.264 246.591 162.143 244.194C153.325 242.449 145.597 238.181 138.239 233.225C122.768 222.805 121.139 203.791 134.645 190.258C140.302 184.594 147.318 180.888 154.427 177.362C160.35 174.429 165.975 171.011 168.929 164.724C169.925 162.617 171.375 160.331 169.84 157.568C167.529 157.514 167.613 160.222 166.029 160.857C162.713 162.236 163.325 159.333 163.438 158.062C165.636 132.752 181.819 121.641 205.698 131.253C213.364 134.336 217.523 144.891 215.804 153.756C215.4 155.847 213.279 157.711 214.768 160.113C215.669 160.715 216.568 161.323 217.469 161.926C229.761 174.104 244.963 182.349 259.234 191.645C281.222 205.966 304.666 217.932 329.2 227.517C346.154 234.137 363.899 237.656 381.718 240.964C394.707 243.378 407.183 247.46 418.139 255.16C422.782 258.423 427.266 261.984 427.632 268.401Z" fill="#DDD0AC"/>
<path d="M168.395 490.852C205.693 490.811 235.002 474.362 258.712 446.653C272.542 430.491 285.524 413.774 294.548 394.24C304.484 372.739 310.023 350.003 314.993 327.03C319.427 306.529 322.355 285.772 325.949 265.124C326.229 263.521 326.421 262.008 325.79 260.474C326.648 260.732 327.505 260.995 328.365 261.238C342.842 265.326 348.733 273.46 348.669 289.839C348.601 307.133 352.735 324.719 355.828 341.99C362.079 376.918 355.655 408.377 336.131 438.1C311.875 475.023 278.474 498.743 235.789 507.581C213.303 512.237 190.207 509.737 171.039 493.856C170.023 493.017 169.272 491.859 168.395 490.852Z" fill="#D35035"/>
<path d="M382.014 113.78C380.653 113.217 379.385 110.926 378.101 112.091C376.452 113.583 378.061 115.471 379.282 116.701C385.969 123.451 394.947 125.48 403.896 127.88C402.465 126.708 401.033 125.532 399.601 124.355C399.26 120.348 402.161 121.774 403.874 122.074C412.478 123.568 421.118 131.402 421.469 137.783C421.982 147.146 415.481 156.549 406.103 159.233C398.317 161.463 390.385 163.658 382.368 159.898C381.404 160.034 380.441 160.173 379.477 160.309C378.49 161.916 380.456 162.937 380.278 164.381L380.66 164.786L380.773 165.328C382.439 167.675 380.596 169.217 379.297 170.58C367.934 182.482 360.559 197.081 351.916 210.82C350.51 213.048 349.812 215.942 346.684 216.629C340.033 214.511 333.399 212.346 326.729 210.305C324.197 209.528 322.451 208.873 324.866 205.899C336.04 192.116 342.251 175.916 346.992 159.103C348.032 155.427 349.588 154.231 353.396 154.131C359.513 153.962 365.893 154.679 373.045 150.927C362.839 148.992 353.982 147.331 345.136 145.62C343.844 145.373 342.378 145.222 341.352 144.503C326.193 133.921 319.858 119.934 327.296 101.739C333.905 85.5672 353.729 76.7708 368.746 82.3817C374.006 84.3489 378.252 87.518 381.057 92.4627C384.848 97.7176 385.295 103.99 386.235 110.068C386.549 112.064 385.923 114.097 383.482 114.771L383.419 114.735C383.017 114.318 382.551 114.001 382.014 113.78Z" fill="#DACDB7"/>
<path d="M427.63 268.402C421.164 256.61 409.817 251.562 398.035 247.333C388.022 243.739 377.537 241.976 367.073 240.174C344.635 236.304 323.711 228.036 303.229 218.341C274.763 204.868 248.734 187.468 223.056 169.457C220.288 167.515 219.051 164.64 217.467 161.927C229.046 169.608 240.729 177.109 253.141 183.414C278.455 196.269 303.353 210.16 330.419 219.054C364.265 230.173 398.54 239.831 434.622 239.932C439.778 239.948 440.517 241.921 439.107 246.084C438.451 248.027 437.731 250.139 435.921 251.146C429.023 254.98 428.029 261.519 427.63 268.402Z" fill="#DAB57B"/>
<path d="M214.765 160.113C212.932 159.491 211.539 158.713 212.319 156.289C217.09 141.396 209.525 130.787 193.769 129.911C178.109 129.038 169.657 135.627 166.66 152.392C166.176 155.089 162.961 157.835 166.03 160.855C163.457 164.879 163.457 164.879 158.712 167.427C160.281 155.155 153.643 142.806 162.138 131.387C166.564 125.433 171.482 119.937 178.785 118.345C196.075 114.576 211.957 117.754 225.162 130.245C235.99 140.491 235.488 152.977 231.666 166.44C226.913 164.157 222.369 161.911 217.762 159.809C216.861 159.395 215.5 157.633 214.765 160.113Z" fill="#DAB57B"/>
<path d="M487.385 273.397C487.16 271.449 487.832 269.975 489.389 268.695C505.652 255.314 496.244 239.06 483.458 231.374C472.141 224.567 460.521 223.966 449.149 231.664C453.332 222.082 461.905 216.725 471.587 218.195C489.873 220.976 510.535 234.263 514.638 258.222C515.73 264.62 514.314 269.887 508.063 272.996C504.636 274.7 501.272 276.552 497.748 278.026C489.697 281.394 489.664 281.316 487.385 273.397Z" fill="#DAB57B"/>
<path d="M382.364 159.904C390.164 159.556 397.982 159.888 405.618 157.42C413.904 154.742 420.165 146.066 419.748 137.449C419.606 134.565 417.845 133.055 416.152 131.289C411.734 126.684 403.928 123.404 399.599 124.365C397.825 123.418 396.029 122.502 394.278 121.519C392.409 120.469 392.904 118.895 393.498 117.375C394.089 115.866 395.185 115.522 396.757 115.899C403.94 117.626 411.402 118.569 418.271 121.12C428.413 124.888 432.766 139.129 428.216 150.95C422.842 164.898 403.941 173.345 389.876 168.153C385.878 166.681 383.9 163.531 382.364 159.904Z" fill="#DAB57B"/>
<path d="M346.683 216.627C356.506 198.502 367.063 180.864 380.772 165.326C385.579 168.831 386.078 171.849 381.295 176.477C371.506 185.946 366.802 198.678 361.482 210.877C357.216 220.663 357.386 220.74 346.683 216.627Z" fill="#D9B57B"/>
<path d="M383.475 114.776C386.337 106.939 381.951 99.8887 381.048 92.4634C387.718 98.6557 387.546 107.326 389.246 115.302C389.396 115.99 388.816 117.459 388.374 117.55C386.079 118.007 384.907 116.089 383.475 114.776Z" fill="#C6A775"/>
<path d="M380.273 164.382C379.187 163.182 378.255 161.953 379.472 160.31C379.739 161.671 380.005 163.027 380.273 164.382Z" fill="#D9B57B"/>
<path d="M159.268 333.182C161.11 332.156 162.547 331.459 164.168 332.343C165.393 333.019 165.436 334.195 165.088 335.292C158.026 357.601 161.52 379.723 165.756 401.957C166.793 407.383 165.837 413.258 163.76 418.611C161.793 423.682 158.14 427.163 152.479 426.492C147.109 425.853 143.627 422.69 142.825 416.779C139.453 392.025 140.844 367.818 150.536 344.481C152.489 339.781 155.819 336.132 159.268 333.182Z" fill="#EBB56D"/>
<path d="M182.049 306.765C182.841 306.331 183.585 305.759 184.427 305.492C187.956 304.382 192.185 303.316 194.182 307.035C196.141 310.676 193.228 313.871 190.237 316.121C184.939 320.101 178.325 321.278 172.499 324.164C170.955 324.933 169.368 324.673 168.249 323.24C167.075 321.733 167.556 320.205 168.699 318.961C172.79 314.503 176.743 309.885 182.049 306.765Z" fill="#EBB46D"/>
</svg>
