<svg width="390" height="437" viewBox="0 0 390 437" fill="none" xmlns="http://www.w3.org/2000/svg">
<path d="M159.336 281.68C144.978 274.301 130.695 269.463 116.445 264.553C100.422 259.035 84.5773 252.916 70.2335 243.889C48.4056 230.147 33.3401 210.174 21.6664 187.562C7.44726 160.021 -1.49427 130.975 0.257327 99.6593C1.12774 84.0987 3.10761 68.1819 9.52365 53.9511C23.471 23.0123 47.1056 5.21871 81.9284 1.52742C115.029 -1.98158 144.338 6.54029 172.468 22.8797C188.853 32.4 203.27 44.1408 216.349 57.6258C237.883 79.8357 245.858 106.458 242.896 137.173C240.125 165.941 235.05 194.386 231.777 224.119C248.874 208.132 263.586 191.138 278.541 174.061C265.226 169.823 261.22 161.839 264.34 146.929C269.932 120.237 288.704 106.516 312.848 99.0213C325.182 95.1933 341.778 106.101 347.76 120.382C351.054 128.245 352.185 136.535 350.776 144.986C349.811 150.774 351.692 153.84 357.45 156.039C366.411 159.457 375.961 162.208 382.113 170.697C392.735 185.363 391.774 205.708 379.184 221.691C370.19 233.109 358.979 240.889 344.027 242.551C331.454 243.947 324.117 235.251 316.063 228.278C313.739 226.269 312.786 226.282 310.735 227.715C288.48 243.242 266.519 259.168 245.195 275.963C242.797 277.852 242.635 279.53 243.745 282.239C250.618 298.997 261.083 313.381 272.77 326.999C274.307 328.788 275.21 328.995 277.543 327.508C298.17 314.375 316.709 318.402 330.766 333.664C344.599 348.691 344.197 375.611 330.791 390.451C322.033 400.145 304.869 403.443 292.702 397.017C287.759 394.407 285.468 395.074 283.376 400.016C281.897 403.517 279.54 406.637 277.729 410.009C269.365 425.607 247.138 429.634 231.561 410.9C219.8 396.76 220.276 379.091 231.789 364.74C233.235 362.934 234.035 361.973 232.593 359.64C224.618 346.739 216.514 333.975 206.451 322.512C202.802 318.357 200.796 317.524 196.952 322.508C184.407 338.773 171.436 354.71 158.426 370.61C156.514 372.947 157.463 373.887 158.915 375.561C170.699 389.141 168.279 409.156 153.489 421.969C139.624 433.988 123.553 438.371 105.643 436.598C87.8908 434.837 79.7894 421.257 85.3048 403.024C88.4248 392.708 88.3867 392.758 79.6477 386.382C73.8328 382.136 66.9395 380.566 60.3039 378.436C53.3886 376.216 46.7522 373.56 40.3722 370.018C25.479 361.757 19.4595 348.314 19.2179 332.343C18.9669 315.751 27.8753 304.395 42.6719 297.29C62.9234 287.563 82.5651 286.22 101.23 300.928C102.803 302.17 104.187 303.703 105.459 305.261C106.772 306.873 107.906 307.39 110.014 306.355C125.424 298.761 140.908 291.316 156.356 283.797C157.129 283.42 157.782 282.798 159.336 281.68Z" fill="#010101"/>
<path d="M62.6385 12.8961C87.3568 5.37272 112.215 2.61358 137.195 11.4669C168.349 22.5076 195.862 39.2447 217.811 64.3255C233.98 82.8027 240.742 104.35 238.79 128.867C236.582 156.633 230.48 183.888 228.11 211.592C226.863 226.154 220.827 236.938 209.181 245.472C202.308 250.51 196.322 256.753 189.196 261.55C186.122 263.216 183.976 261.136 181.892 259.529C157.531 240.733 133.421 221.646 110.984 200.522C84.4842 175.578 67.037 145.132 54.9464 111.111C48.4537 92.8408 46.07 74.546 47.8957 55.145C48.9745 43.6817 51.0439 32.8523 55.3446 22.3087C56.9081 18.4765 58.6787 14.8516 62.6385 12.8961Z" fill="#E97E46"/>
<path d="M133.364 347.089C131.824 346.915 130.061 346.331 129.412 348.452C128.92 350.059 130.12 350.917 131.317 351.621C135.009 353.784 137.706 356.51 137.782 361.204C137.902 368.507 142.294 373.085 147.999 376.876C150.747 378.703 154.183 379.921 155.266 383.6C158.174 389.636 157.352 395.44 154.151 401.074C147.534 412.728 137.597 419.448 124.198 420.417C111.18 421.354 103.327 413.495 100.301 397.114C92.7266 386.541 83.9541 377.626 71.0371 373.483C61.3739 370.384 51.651 367.302 42.9871 361.655C20.3037 346.857 21.4856 316.212 45.312 303.605C64.6405 293.377 85.0893 294.835 99.8933 307.525C104.244 311.257 107.152 316.133 110.279 320.836C111.1 322.066 111.937 324.026 113.838 322.82C115.127 322 114.566 320.309 113.994 319.075C112.768 316.419 111.425 313.822 109.992 310.918C130.559 304.898 149.432 295.709 167.349 284.747C197.103 266.543 221.922 242.436 245.847 217.359C258.483 204.115 269.574 189.499 281.99 176.109C287.549 170.114 290.793 162.719 296.382 156.957C296.966 156.352 297.248 155.449 298.209 153.704C293.026 155.482 291.63 159.828 288.66 162.388C286.141 164.555 285.606 169.663 280.743 168.383C275.809 167.086 273.331 163.092 272.494 158.489C270.241 146.094 274.106 135.281 282.027 125.798C287.79 118.9 295.243 114.169 303.122 110.093C319.69 101.521 337.152 109.218 342.542 127.563C344.795 135.244 344.679 143.177 344.36 151.107C344.091 157.711 344.389 164.285 348.487 169.895C349.858 171.78 351.167 174.149 354.328 174.129C355.484 172.128 353.069 170.901 353.272 169.207C353.653 165.636 355.907 167.566 356.967 168.275C378.116 182.352 380.097 201.882 360.203 218.217C353.819 223.462 342.562 222.045 335.611 216.282C333.97 214.923 333.353 212.168 330.532 212.322C329.57 212.823 328.605 213.32 327.644 213.821C311.06 218.76 296.531 228.139 281.526 236.197C258.409 248.613 236.659 263.436 216.475 280.36C202.53 292.055 190.926 305.934 179.471 319.978C171.119 330.215 161.549 339.201 149.536 345.117C144.445 347.623 139.168 349.848 133.364 347.089Z" fill="#DDD0AC"/>
<path d="M62.6381 12.8954C44.7724 45.6364 45.1349 79.2433 58.0639 113.343C65.6043 133.233 74.0388 152.646 86.8448 169.939C100.938 188.975 118.225 204.747 135.993 220.134C151.851 233.863 168.655 246.395 185.045 259.458C186.316 260.473 187.551 261.367 189.2 261.55C188.562 262.179 187.92 262.805 187.294 263.443C176.759 274.181 166.795 275.445 152.457 267.528C137.318 259.168 119.906 254.354 103.27 248.777C69.6279 237.496 45.1125 216.761 28.4085 185.367C7.6582 146.366 2.88025 105.679 15.6146 63.9893C22.3227 42.028 35.6018 22.9667 58.7338 13.7737C59.9576 13.2848 61.3335 13.1813 62.6381 12.8954Z" fill="#D35035"/>
<path d="M290.902 381.279C292.05 380.356 294.668 380.343 294.262 378.657C293.744 376.494 291.316 377 289.651 377.48C280.52 380.107 274.43 387.009 268.029 393.708C269.745 393.016 271.464 392.324 273.183 391.632C276.862 393.256 274.219 395.117 273.133 396.475C267.694 403.307 256.674 407.127 250.907 404.372C242.447 400.328 237.318 390.112 239.464 380.596C241.246 372.695 243.127 364.683 250.273 359.455C250.617 358.543 250.957 357.632 251.301 356.721C250.364 355.084 248.525 356.319 247.344 355.469L246.806 355.61L246.275 355.449C243.417 355.784 242.949 353.427 242.377 351.633C237.389 335.952 228.121 322.476 220.217 308.299C218.937 305.995 216.733 303.994 217.632 300.92C222.682 296.102 227.765 291.321 232.757 286.449C234.655 284.602 236.067 283.384 237.517 286.93C244.245 303.348 255.477 316.572 267.951 328.802C270.677 331.478 270.979 333.417 269.239 336.806C266.451 342.254 262.76 347.507 262.619 355.581C269.214 347.557 274.923 340.584 280.669 333.645C281.506 332.63 282.343 331.416 283.466 330.861C300.025 322.641 315.337 323.797 327.728 339.055C338.744 352.615 336.946 374.228 324.816 384.71C320.565 388.38 315.747 390.584 310.063 390.671C303.633 391.475 297.916 388.857 292.133 386.765C290.231 386.081 288.748 384.556 289.328 382.091L289.39 382.054C289.949 381.901 290.451 381.644 290.902 381.279Z" fill="#DACDB7"/>
<path d="M133.363 347.087C146.811 347.075 156.686 339.543 166.052 331.236C174.01 324.177 180.589 315.825 187.193 307.51C201.357 289.684 218.654 275.295 236.99 261.98C262.473 243.474 290.23 228.991 318.356 215.108C321.388 213.612 324.504 213.907 327.644 213.82C315.348 220.291 303.16 226.94 291.671 234.803C268.244 250.84 244.107 266.015 223.314 285.491C197.314 309.847 172.39 335.28 154.983 366.886C152.495 371.401 150.409 371.103 147.433 367.868C146.044 366.36 144.537 364.715 144.522 362.643C144.47 354.751 139.21 350.741 133.363 347.087Z" fill="#DAB57B"/>
<path d="M330.53 212.318C331.955 211.008 333.306 210.159 335.058 212.007C345.834 223.342 358.772 221.796 367.103 208.394C375.385 195.075 373.662 184.498 360.392 173.822C358.258 172.103 357.393 167.964 353.27 169.207C350.975 165.019 350.975 165.019 351.017 159.633C361.03 166.899 375.049 167.003 380.99 179.937C384.089 186.677 386.55 193.629 384.441 200.8C379.449 217.778 369.038 230.186 351.742 235.774C337.557 240.356 326.843 233.923 316.867 224.108C321.151 221.034 325.302 218.126 329.358 215.093C330.153 214.501 332.353 214.153 330.53 212.318Z" fill="#DAB57B"/>
<path d="M100.301 397.113C102.119 397.851 103.089 399.147 103.465 401.128C107.397 421.817 126.173 421.365 139.053 413.838C150.456 407.176 156.561 397.271 155.265 383.599C161.664 391.868 162.249 401.96 156.312 409.749C145.095 424.456 123.522 436.205 100.534 428.305C94.3967 426.192 90.4555 422.422 90.7281 415.445C90.8777 411.621 90.8686 407.781 91.2663 403.982C92.1761 395.303 92.2602 395.311 100.301 397.113Z" fill="#DAB57B"/>
<path d="M250.273 359.451C246.834 366.461 242.791 373.16 241.291 381.043C239.663 389.598 244.27 399.255 252.029 403.025C254.627 404.285 256.798 403.465 259.159 402.827C265.32 401.161 271.944 395.887 273.179 391.628C274.861 390.526 276.526 389.391 278.229 388.327C280.048 387.191 281.191 388.38 282.239 389.632C283.279 390.874 283.055 392.001 281.97 393.199C277.007 398.671 272.599 404.765 267.064 409.567C258.89 416.655 244.307 413.639 236.121 403.974C226.464 392.565 228.125 371.929 239.431 362.082C242.642 359.281 246.354 359.057 250.273 359.451Z" fill="#DAB57B"/>
<path d="M217.635 300.921C228.82 318.239 239.227 335.966 246.278 355.45C240.897 357.985 238.009 356.974 236.244 350.557C232.636 337.424 223.725 327.187 215.576 316.664C209.038 308.225 208.889 308.337 217.635 300.921Z" fill="#D9B57B"/>
<path d="M289.328 382.088C294.83 388.36 303.12 387.896 310.067 390.668C301.434 393.547 293.91 389.234 286.097 386.898C285.421 386.699 284.411 385.485 284.543 385.054C285.243 382.821 287.489 382.713 289.328 382.088Z" fill="#C6A775"/>
<path d="M247.348 355.468C248.922 355.091 250.447 354.863 251.304 356.719C249.983 356.3 248.665 355.882 247.348 355.468Z" fill="#D9B57B"/>
<path d="M205.338 80.5624C205.355 82.6711 205.276 84.2661 203.723 85.2645C202.542 86.0144 201.49 85.4882 200.694 84.6555C184.512 67.7527 163.428 60.2002 141.89 53.2444C136.632 51.5499 131.936 47.8918 128.236 43.5004C124.732 39.3409 123.432 34.4648 126.738 29.8207C129.875 25.4168 134.322 23.8798 139.892 26.0134C163.227 34.9371 183.795 47.7758 199.617 67.4793C202.803 71.4481 204.406 76.1213 205.338 80.5624Z" fill="#EBB56D"/>
<path d="M217.575 113.227C217.575 114.131 217.72 115.059 217.55 115.924C216.829 119.554 215.735 123.775 211.514 123.742C207.379 123.713 205.975 119.624 205.436 115.92C204.487 109.362 206.629 102.995 206.894 96.4985C206.961 94.7751 207.951 93.5074 209.745 93.2133C211.63 92.9067 212.74 94.0625 213.283 95.6617C215.23 101.391 217.384 107.075 217.575 113.227Z" fill="#EBB46D"/>
</svg>
