<svg width="785" height="238" viewBox="0 0 785 238" fill="none" xmlns="http://www.w3.org/2000/svg">
<rect y="26" width="785" height="212" rx="41" fill="#074DAB"/>
<rect x="8" y="16" width="769" height="212" rx="41" fill="#65AAF2"/>
<rect x="15" width="755" height="212" rx="41" fill="white"/>
<path d="M81.89 42C84.53 42 86.7 42.54 88.4 43.62C90.1 44.68 90.97 46.26 91.01 48.36V48.72H84.8V48.6C84.8 48 84.58 47.5 84.14 47.1C83.7 46.7 83.03 46.5 82.13 46.5C81.25 46.5 80.57 46.63 80.09 46.89C79.63 47.15 79.4 47.47 79.4 47.85C79.4 48.39 79.72 48.79 80.36 49.05C81 49.31 82.03 49.58 83.45 49.86C85.11 50.2 86.47 50.56 87.53 50.94C88.61 51.3 89.55 51.9 90.35 52.74C91.15 53.58 91.56 54.72 91.58 56.16C91.58 58.6 90.75 60.41 89.09 61.59C87.45 62.77 85.25 63.36 82.49 63.36C79.27 63.36 76.76 62.82 74.96 61.74C73.18 60.66 72.29 58.75 72.29 56.01H78.56C78.56 57.05 78.83 57.75 79.37 58.11C79.91 58.45 80.75 58.62 81.89 58.62C82.73 58.62 83.42 58.53 83.96 58.35C84.52 58.17 84.8 57.8 84.8 57.24C84.8 56.74 84.49 56.37 83.87 56.13C83.27 55.87 82.28 55.6 80.9 55.32C79.22 54.96 77.83 54.59 76.73 54.21C75.63 53.81 74.67 53.16 73.85 52.26C73.03 51.36 72.62 50.14 72.62 48.6C72.62 46.34 73.49 44.68 75.23 43.62C76.99 42.54 79.21 42 81.89 42ZM105.94 63L105.55 60.6C104.93 61.46 104.11 62.14 103.09 62.64C102.09 63.12 101.03 63.36 99.9104 63.36C98.0704 63.36 96.6904 62.85 95.7704 61.83C94.8504 60.81 94.3904 59.34 94.3904 57.42V47.16H100.36V56.7C100.36 57.38 100.53 57.93 100.87 58.35C101.23 58.75 101.73 58.95 102.37 58.95C103.11 58.95 103.71 58.71 104.17 58.23C104.63 57.75 104.86 57.16 104.86 56.46V47.16H110.83V63H105.94ZM124.9 46.8C127.04 46.8 128.69 47.5 129.85 48.9C131.01 50.3 131.59 52.37 131.59 55.11C131.59 57.83 131.01 59.89 129.85 61.29C128.69 62.67 127.04 63.36 124.9 63.36C123.06 63.36 121.58 62.76 120.46 61.56V68.91H114.49V47.16H119.35L119.86 49.41C121.02 47.67 122.7 46.8 124.9 46.8ZM123.04 51.21C122.16 51.21 121.5 51.52 121.06 52.14C120.62 52.76 120.4 53.57 120.4 54.57V55.56C120.4 56.56 120.62 57.38 121.06 58.02C121.5 58.64 122.16 58.95 123.04 58.95C124.76 58.95 125.62 57.92 125.62 55.86V54.27C125.62 52.23 124.76 51.21 123.04 51.21ZM144.91 46.8C147.05 46.8 148.7 47.5 149.86 48.9C151.02 50.3 151.6 52.37 151.6 55.11C151.6 57.83 151.02 59.89 149.86 61.29C148.7 62.67 147.05 63.36 144.91 63.36C143.07 63.36 141.59 62.76 140.47 61.56V68.91H134.5V47.16H139.36L139.87 49.41C141.03 47.67 142.71 46.8 144.91 46.8ZM143.05 51.21C142.17 51.21 141.51 51.52 141.07 52.14C140.63 52.76 140.41 53.57 140.41 54.57V55.56C140.41 56.56 140.63 57.38 141.07 58.02C141.51 58.64 142.17 58.95 143.05 58.95C144.77 58.95 145.63 57.92 145.63 55.86V54.27C145.63 52.23 144.77 51.21 143.05 51.21ZM154.69 63V41.25H160.66V63H154.69ZM175.858 62.52C175.038 64.74 174.028 66.42 172.828 67.56C171.648 68.72 169.988 69.3 167.848 69.3C166.548 69.3 165.398 69.12 164.398 68.76V65.19H166.798C168.298 65.19 169.188 64.46 169.468 63L163.168 47.16H169.588L172.618 57.69H172.828L175.618 47.16H181.498L175.858 62.52Z" fill="#7F7F7F"/>
<path d="M85.1 101.64V117H78.47V101.64H71.69V96.36H91.85V101.64H85.1ZM100.757 100.8C103.177 100.8 105.147 101.21 106.667 102.03C108.187 102.83 108.947 104.14 108.947 105.96V112.14C108.947 112.48 109.027 112.76 109.187 112.98C109.347 113.2 109.587 113.31 109.907 113.31H110.987V116.76C110.927 116.8 110.767 116.87 110.507 116.97C110.267 117.05 109.917 117.13 109.457 117.21C108.997 117.31 108.467 117.36 107.867 117.36C106.707 117.36 105.747 117.19 104.987 116.85C104.247 116.49 103.737 116 103.457 115.38C102.697 115.98 101.847 116.46 100.907 116.82C99.967 117.18 98.867 117.36 97.607 117.36C93.887 117.36 92.027 115.88 92.027 112.92C92.027 111.38 92.437 110.21 93.257 109.41C94.097 108.59 95.297 108.03 96.857 107.73C98.417 107.43 100.457 107.28 102.977 107.28V106.5C102.977 105.88 102.757 105.41 102.317 105.09C101.897 104.77 101.347 104.61 100.667 104.61C100.047 104.61 99.507 104.72 99.047 104.94C98.607 105.16 98.387 105.51 98.387 105.99V106.11H92.507C92.487 106.01 92.477 105.87 92.477 105.69C92.477 104.19 93.187 103 94.607 102.12C96.047 101.24 98.097 100.8 100.757 100.8ZM102.977 110.1C101.277 110.1 100.017 110.29 99.197 110.67C98.397 111.03 97.997 111.52 97.997 112.14C97.997 113.14 98.677 113.64 100.037 113.64C100.817 113.64 101.497 113.43 102.077 113.01C102.677 112.59 102.977 112.07 102.977 111.45V110.1ZM130.997 117H124.037L121.037 112.02H120.917L117.887 117H111.257L117.347 108.6L111.857 101.16H118.877L121.397 105.36H121.517L124.037 101.16H130.637L125.057 108.75L130.997 117Z" fill="#7F7F7F"/>
<path d="M73.22 150.36H79.85V165.72H90.44V171H73.22V150.36ZM93.0198 153.3V149.25H98.9898V153.3H93.0198ZM93.0198 171V155.16H98.9898V171H93.0198ZM108.77 154.8C110.97 154.8 112.65 155.67 113.81 157.41L114.32 155.16H119.18V176.91H113.21V169.56C112.09 170.76 110.61 171.36 108.77 171.36C106.63 171.36 104.98 170.67 103.82 169.29C102.66 167.89 102.08 165.83 102.08 163.11C102.08 160.37 102.66 158.3 103.82 156.9C104.98 155.5 106.63 154.8 108.77 154.8ZM110.63 159.21C108.91 159.21 108.05 160.23 108.05 162.27V163.86C108.05 165.92 108.91 166.95 110.63 166.95C111.51 166.95 112.17 166.64 112.61 166.02C113.05 165.38 113.27 164.56 113.27 163.56V162.57C113.27 161.57 113.05 160.76 112.61 160.14C112.17 159.52 111.51 159.21 110.63 159.21ZM134.3 171L133.91 168.6C133.29 169.46 132.47 170.14 131.45 170.64C130.45 171.12 129.39 171.36 128.27 171.36C126.43 171.36 125.05 170.85 124.13 169.83C123.21 168.81 122.75 167.34 122.75 165.42V155.16H128.72V164.7C128.72 165.38 128.89 165.93 129.23 166.35C129.59 166.75 130.09 166.95 130.73 166.95C131.47 166.95 132.07 166.71 132.53 166.23C132.99 165.75 133.22 165.16 133.22 164.46V155.16H139.19V171H134.3ZM143.03 153.3V149.25H149V153.3H143.03ZM143.03 171V155.16H149V171H143.03ZM164.33 171L163.82 168.75C162.66 170.49 160.98 171.36 158.78 171.36C156.64 171.36 154.99 170.66 153.83 169.26C152.67 167.86 152.09 165.79 152.09 163.05C152.09 160.33 152.67 158.28 153.83 156.9C154.99 155.5 156.64 154.8 158.78 154.8C160.6 154.8 162.08 155.41 163.22 156.63V149.25H169.19V171H164.33ZM160.64 159.21C158.92 159.21 158.06 160.24 158.06 162.3V163.89C158.06 165.93 158.92 166.95 160.64 166.95C161.52 166.95 162.18 166.64 162.62 166.02C163.06 165.4 163.28 164.59 163.28 163.59V162.6C163.28 161.6 163.06 160.79 162.62 160.17C162.18 159.53 161.52 159.21 160.64 159.21ZM173.03 153.3V149.25H179V153.3H173.03ZM173.03 171V155.16H179V171H173.03ZM193.37 155.16V159.21H190.01V165.24C190.01 165.96 190.13 166.49 190.37 166.83C190.61 167.15 191.05 167.31 191.69 167.31H193.37V170.82C192.89 170.98 192.27 171.11 191.51 171.21C190.75 171.31 190.09 171.36 189.53 171.36C187.77 171.36 186.41 171.04 185.45 170.4C184.51 169.76 184.04 168.67 184.04 167.13V159.21H181.82V155.16H184.28L185.57 150.36H190.01V155.16H193.37ZM207.03 170.52C206.21 172.74 205.2 174.42 204 175.56C202.82 176.72 201.16 177.3 199.02 177.3C197.72 177.3 196.57 177.12 195.57 176.76V173.19H197.97C199.47 173.19 200.36 172.46 200.64 171L194.34 155.16H200.76L203.79 165.69H204L206.79 155.16H212.67L207.03 170.52Z" fill="#7F7F7F"/>
<path d="M598.22 150.36H604.85V165.72H615.44V171H598.22V150.36ZM626 154.8C628.78 154.8 630.96 155.51 632.54 156.93C634.14 158.33 634.94 160.38 634.94 163.08C634.94 165.78 634.14 167.84 632.54 169.26C630.96 170.66 628.78 171.36 626 171.36C623.22 171.36 621.04 170.66 619.46 169.26C617.88 167.86 617.09 165.8 617.09 163.08C617.09 160.36 617.88 158.3 619.46 156.9C621.04 155.5 623.22 154.8 626 154.8ZM626 158.85C624.04 158.85 623.06 159.98 623.06 162.24V163.95C623.06 166.19 624.04 167.31 626 167.31C627.98 167.31 628.97 166.19 628.97 163.95V162.24C628.97 159.98 627.98 158.85 626 158.85ZM646.01 154.8C648.61 154.8 650.71 155.36 652.31 156.48C653.93 157.58 654.74 159.27 654.74 161.55H648.95C648.95 159.75 647.97 158.85 646.01 158.85C644.05 158.85 643.07 159.98 643.07 162.24V163.95C643.07 166.19 644.09 167.31 646.13 167.31C648.17 167.31 649.19 166.39 649.19 164.55H654.74C654.74 166.85 653.93 168.56 652.31 169.68C650.71 170.8 648.61 171.36 646.01 171.36C643.23 171.36 641.05 170.66 639.47 169.26C637.89 167.86 637.1 165.8 637.1 163.08C637.1 160.36 637.89 158.3 639.47 156.9C641.05 155.5 643.23 154.8 646.01 154.8ZM668.371 155.16H675.331L669.481 161.55L675.481 171H668.701L665.371 165.57L663.301 167.58V171H657.331V149.22H663.301V161.22L668.371 155.16ZM684.506 154.8C687.406 154.8 689.616 155.48 691.136 156.84C692.676 158.2 693.446 160.28 693.446 163.08V164.1H681.566C681.566 165.24 681.816 166.1 682.316 166.68C682.836 167.26 683.646 167.55 684.746 167.55C685.746 167.55 686.476 167.34 686.936 166.92C687.416 166.5 687.656 165.94 687.656 165.24H693.446C693.446 167.16 692.716 168.66 691.256 169.74C689.796 170.82 687.666 171.36 684.866 171.36C681.926 171.36 679.646 170.68 678.026 169.32C676.406 167.94 675.596 165.86 675.596 163.08C675.596 160.36 676.386 158.3 677.966 156.9C679.546 155.5 681.726 154.8 684.506 154.8ZM684.746 158.61C682.866 158.61 681.816 159.5 681.596 161.28H687.416C687.416 160.46 687.176 159.81 686.696 159.33C686.236 158.85 685.586 158.61 684.746 158.61ZM707.845 171L707.335 168.75C706.175 170.49 704.495 171.36 702.295 171.36C700.155 171.36 698.505 170.66 697.345 169.26C696.185 167.86 695.605 165.79 695.605 163.05C695.605 160.33 696.185 158.28 697.345 156.9C698.505 155.5 700.155 154.8 702.295 154.8C704.115 154.8 705.595 155.41 706.735 156.63V149.25H712.705V171H707.845ZM704.155 159.21C702.435 159.21 701.575 160.24 701.575 162.3V163.89C701.575 165.93 702.435 166.95 704.155 166.95C705.035 166.95 705.695 166.64 706.135 166.02C706.575 165.4 706.795 164.59 706.795 163.59V162.6C706.795 161.6 706.575 160.79 706.135 160.17C705.695 159.53 705.035 159.21 704.155 159.21Z" fill="#7F7F7F"/>
<path d="M502.72 58.38V63H487.15V58.38H492.04V49.05H487.15V45.57C488.49 45.49 489.99 45.14 491.65 44.52C493.31 43.88 494.76 43.15 496 42.33H498.01V58.38H502.72ZM509.05 68.49H505.81L508.27 63H505.84V57.03H512.2V62.67L509.05 68.49ZM524.02 42C527.24 42 529.5 42.92 530.8 44.76C532.12 46.58 532.78 49.22 532.78 52.68C532.78 56.14 532.12 58.79 530.8 60.63C529.5 62.45 527.24 63.36 524.02 63.36C520.78 63.36 518.5 62.45 517.18 60.63C515.88 58.79 515.23 56.14 515.23 52.68C515.23 49.22 515.88 46.58 517.18 44.76C518.5 42.92 520.78 42 524.02 42ZM524.02 46.05C522.98 46.05 522.24 46.45 521.8 47.25C521.36 48.05 521.14 49.36 521.14 51.18V54.15C521.14 55.99 521.36 57.31 521.8 58.11C522.24 58.91 522.98 59.31 524.02 59.31C525.06 59.31 525.79 58.91 526.21 58.11C526.63 57.31 526.84 55.99 526.84 54.15V51.18C526.84 49.34 526.63 48.03 526.21 47.25C525.79 46.45 525.06 46.05 524.02 46.05ZM544.03 42C547.25 42 549.51 42.92 550.81 44.76C552.13 46.58 552.79 49.22 552.79 52.68C552.79 56.14 552.13 58.79 550.81 60.63C549.51 62.45 547.25 63.36 544.03 63.36C540.79 63.36 538.51 62.45 537.19 60.63C535.89 58.79 535.24 56.14 535.24 52.68C535.24 49.22 535.89 46.58 537.19 44.76C538.51 42.92 540.79 42 544.03 42ZM544.03 46.05C542.99 46.05 542.25 46.45 541.81 47.25C541.37 48.05 541.15 49.36 541.15 51.18V54.15C541.15 55.99 541.37 57.31 541.81 58.11C542.25 58.91 542.99 59.31 544.03 59.31C545.07 59.31 545.8 58.91 546.22 58.11C546.64 57.31 546.85 55.99 546.85 54.15V51.18C546.85 49.34 546.64 48.03 546.22 47.25C545.8 46.45 545.07 46.05 544.03 46.05ZM564.04 42C567.26 42 569.52 42.92 570.82 44.76C572.14 46.58 572.8 49.22 572.8 52.68C572.8 56.14 572.14 58.79 570.82 60.63C569.52 62.45 567.26 63.36 564.04 63.36C560.8 63.36 558.52 62.45 557.2 60.63C555.9 58.79 555.25 56.14 555.25 52.68C555.25 49.22 555.9 46.58 557.2 44.76C558.52 42.92 560.8 42 564.04 42ZM564.04 46.05C563 46.05 562.26 46.45 561.82 47.25C561.38 48.05 561.16 49.36 561.16 51.18V54.15C561.16 55.99 561.38 57.31 561.82 58.11C562.26 58.91 563 59.31 564.04 59.31C565.08 59.31 565.81 58.91 566.23 58.11C566.65 57.31 566.86 55.99 566.86 54.15V51.18C566.86 49.34 566.65 48.03 566.23 47.25C565.81 46.45 565.08 46.05 564.04 46.05ZM579.069 68.49H575.829L578.289 63H575.859V57.03H582.219V62.67L579.069 68.49ZM594.04 42C597.26 42 599.52 42.92 600.82 44.76C602.14 46.58 602.8 49.22 602.8 52.68C602.8 56.14 602.14 58.79 600.82 60.63C599.52 62.45 597.26 63.36 594.04 63.36C590.8 63.36 588.52 62.45 587.2 60.63C585.9 58.79 585.25 56.14 585.25 52.68C585.25 49.22 585.9 46.58 587.2 44.76C588.52 42.92 590.8 42 594.04 42ZM594.04 46.05C593 46.05 592.26 46.45 591.82 47.25C591.38 48.05 591.16 49.36 591.16 51.18V54.15C591.16 55.99 591.38 57.31 591.82 58.11C592.26 58.91 593 59.31 594.04 59.31C595.08 59.31 595.81 58.91 596.23 58.11C596.65 57.31 596.86 55.99 596.86 54.15V51.18C596.86 49.34 596.65 48.03 596.23 47.25C595.81 46.45 595.08 46.05 594.04 46.05ZM614.049 42C617.269 42 619.529 42.92 620.829 44.76C622.149 46.58 622.809 49.22 622.809 52.68C622.809 56.14 622.149 58.79 620.829 60.63C619.529 62.45 617.269 63.36 614.049 63.36C610.809 63.36 608.529 62.45 607.209 60.63C605.909 58.79 605.259 56.14 605.259 52.68C605.259 49.22 605.909 46.58 607.209 44.76C608.529 42.92 610.809 42 614.049 42ZM614.049 46.05C613.009 46.05 612.269 46.45 611.829 47.25C611.389 48.05 611.169 49.36 611.169 51.18V54.15C611.169 55.99 611.389 57.31 611.829 58.11C612.269 58.91 613.009 59.31 614.049 59.31C615.089 59.31 615.819 58.91 616.239 58.11C616.659 57.31 616.869 55.99 616.869 54.15V51.18C616.869 49.34 616.659 48.03 616.239 47.25C615.819 46.45 615.089 46.05 614.049 46.05ZM634.059 42C637.279 42 639.539 42.92 640.839 44.76C642.159 46.58 642.819 49.22 642.819 52.68C642.819 56.14 642.159 58.79 640.839 60.63C639.539 62.45 637.279 63.36 634.059 63.36C630.819 63.36 628.539 62.45 627.219 60.63C625.919 58.79 625.269 56.14 625.269 52.68C625.269 49.22 625.919 46.58 627.219 44.76C628.539 42.92 630.819 42 634.059 42ZM634.059 46.05C633.019 46.05 632.279 46.45 631.839 47.25C631.399 48.05 631.179 49.36 631.179 51.18V54.15C631.179 55.99 631.399 57.31 631.839 58.11C632.279 58.91 633.019 59.31 634.059 59.31C635.099 59.31 635.829 58.91 636.249 58.11C636.669 57.31 636.879 55.99 636.879 54.15V51.18C636.879 49.34 636.669 48.03 636.249 47.25C635.829 46.45 635.099 46.05 634.059 46.05ZM649.089 68.49H645.849L648.309 63H645.879V57.03H652.239V62.67L649.089 68.49ZM664.059 42C667.279 42 669.539 42.92 670.839 44.76C672.159 46.58 672.819 49.22 672.819 52.68C672.819 56.14 672.159 58.79 670.839 60.63C669.539 62.45 667.279 63.36 664.059 63.36C660.819 63.36 658.539 62.45 657.219 60.63C655.919 58.79 655.269 56.14 655.269 52.68C655.269 49.22 655.919 46.58 657.219 44.76C658.539 42.92 660.819 42 664.059 42ZM664.059 46.05C663.019 46.05 662.279 46.45 661.839 47.25C661.399 48.05 661.179 49.36 661.179 51.18V54.15C661.179 55.99 661.399 57.31 661.839 58.11C662.279 58.91 663.019 59.31 664.059 59.31C665.099 59.31 665.829 58.91 666.249 58.11C666.669 57.31 666.879 55.99 666.879 54.15V51.18C666.879 49.34 666.669 48.03 666.249 47.25C665.829 46.45 665.099 46.05 664.059 46.05ZM684.069 42C687.289 42 689.549 42.92 690.849 44.76C692.169 46.58 692.829 49.22 692.829 52.68C692.829 56.14 692.169 58.79 690.849 60.63C689.549 62.45 687.289 63.36 684.069 63.36C680.829 63.36 678.549 62.45 677.229 60.63C675.929 58.79 675.279 56.14 675.279 52.68C675.279 49.22 675.929 46.58 677.229 44.76C678.549 42.92 680.829 42 684.069 42ZM684.069 46.05C683.029 46.05 682.289 46.45 681.849 47.25C681.409 48.05 681.189 49.36 681.189 51.18V54.15C681.189 55.99 681.409 57.31 681.849 58.11C682.289 58.91 683.029 59.31 684.069 59.31C685.109 59.31 685.839 58.91 686.259 58.11C686.679 57.31 686.889 55.99 686.889 54.15V51.18C686.889 49.34 686.679 48.03 686.259 47.25C685.839 46.45 685.109 46.05 684.069 46.05ZM704.079 42C707.299 42 709.559 42.92 710.859 44.76C712.179 46.58 712.839 49.22 712.839 52.68C712.839 56.14 712.179 58.79 710.859 60.63C709.559 62.45 707.299 63.36 704.079 63.36C700.839 63.36 698.559 62.45 697.239 60.63C695.939 58.79 695.289 56.14 695.289 52.68C695.289 49.22 695.939 46.58 697.239 44.76C698.559 42.92 700.839 42 704.079 42ZM704.079 46.05C703.039 46.05 702.299 46.45 701.859 47.25C701.419 48.05 701.199 49.36 701.199 51.18V54.15C701.199 55.99 701.419 57.31 701.859 58.11C702.299 58.91 703.039 59.31 704.079 59.31C705.119 59.31 705.849 58.91 706.269 58.11C706.689 57.31 706.899 55.99 706.899 54.15V51.18C706.899 49.34 706.689 48.03 706.269 47.25C705.849 46.45 705.119 46.05 704.079 46.05Z" fill="#7F7F7F"/>
<path d="M675.02 96C678.24 96 680.5 96.92 681.8 98.76C683.12 100.58 683.78 103.22 683.78 106.68C683.78 110.14 683.12 112.79 681.8 114.63C680.5 116.45 678.24 117.36 675.02 117.36C671.78 117.36 669.5 116.45 668.18 114.63C666.88 112.79 666.23 110.14 666.23 106.68C666.23 103.22 666.88 100.58 668.18 98.76C669.5 96.92 671.78 96 675.02 96ZM675.02 100.05C673.98 100.05 673.24 100.45 672.8 101.25C672.36 102.05 672.14 103.36 672.14 105.18V108.15C672.14 109.99 672.36 111.31 672.8 112.11C673.24 112.91 673.98 113.31 675.02 113.31C676.06 113.31 676.79 112.91 677.21 112.11C677.63 111.31 677.84 109.99 677.84 108.15V105.18C677.84 103.34 677.63 102.03 677.21 101.25C676.79 100.45 676.06 100.05 675.02 100.05ZM691.91 96C693.79 96 695.17 96.48 696.05 97.44C696.95 98.38 697.4 99.7 697.4 101.4C697.4 103.06 696.95 104.37 696.05 105.33C695.17 106.27 693.79 106.74 691.91 106.74C690.03 106.74 688.64 106.27 687.74 105.33C686.84 104.37 686.39 103.06 686.39 101.4C686.39 99.7 686.84 98.38 687.74 97.44C688.64 96.48 690.03 96 691.91 96ZM691.94 117L704.51 96.39H707.78L695.27 117H691.94ZM691.91 98.28C691.29 98.28 690.83 98.52 690.53 99C690.25 99.46 690.11 100.09 690.11 100.89V101.85C690.11 102.65 690.25 103.29 690.53 103.77C690.83 104.23 691.29 104.46 691.91 104.46C693.09 104.46 693.68 103.59 693.68 101.85V100.89C693.68 99.15 693.09 98.28 691.91 98.28ZM707.87 106.62C709.75 106.62 711.13 107.1 712.01 108.06C712.91 109 713.36 110.32 713.36 112.02C713.36 113.68 712.91 114.99 712.01 115.95C711.13 116.89 709.75 117.36 707.87 117.36C705.99 117.36 704.6 116.89 703.7 115.95C702.8 114.99 702.35 113.68 702.35 112.02C702.35 110.32 702.8 109 703.7 108.06C704.6 107.1 705.99 106.62 707.87 106.62ZM707.87 108.9C707.25 108.9 706.79 109.14 706.49 109.62C706.21 110.08 706.07 110.71 706.07 111.51V112.47C706.07 113.27 706.21 113.91 706.49 114.39C706.79 114.85 707.25 115.08 707.87 115.08C709.05 115.08 709.64 114.21 709.64 112.47V111.51C709.64 109.77 709.05 108.9 707.87 108.9Z" fill="#7F7F7F"/>
</svg>
