<svg width="161" height="115" viewBox="0 0 161 115" fill="none" xmlns="http://www.w3.org/2000/svg">
<rect y="12.5625" width="161" height="102.437" rx="41" fill="#074DAB"/>
<rect x="1.64087" y="7.73047" width="157.718" height="102.437" rx="41" fill="#65AAF2"/>
<rect x="3.07642" width="154.847" height="102.437" rx="41" fill="white"/>
<path fill-rule="evenodd" clip-rule="evenodd" d="M101.387 30.1824C102.066 29.8964 102.81 29.7977 103.541 29.8967C104.271 29.9957 104.962 30.2887 105.541 30.7453C106.12 31.2018 106.566 31.8052 106.833 32.4926C107.099 33.18 107.177 33.9264 107.057 34.6539L100.82 72.4857C100.215 76.1349 96.2113 78.2277 92.8645 76.4099C90.065 74.8892 85.907 72.5462 82.167 70.1014C80.297 68.8777 74.5688 64.9589 75.2728 62.1704C75.8778 59.7862 85.5028 50.8267 91.0028 45.4999C93.1615 43.4072 92.177 42.1999 89.6278 44.1249C83.2973 48.9044 73.1333 56.1727 69.7728 58.2187C66.8083 60.0227 65.2628 60.3307 63.4148 60.0227C60.0433 59.4617 56.9165 58.5927 54.3645 57.5339C50.916 56.1039 51.0838 51.3629 54.3618 49.9824L101.387 30.1824Z" fill="black"/>
</svg>
