<svg width="161" height="115" viewBox="0 0 161 115" fill="none" xmlns="http://www.w3.org/2000/svg">
<rect y="12.5625" width="161" height="102.437" rx="41" fill="#074DAB"/>
<rect x="1.64087" y="7.73047" width="157.718" height="102.437" rx="41" fill="#65AAF2"/>
<rect x="3.07642" width="154.847" height="102.437" rx="41" fill="white"/>
<path d="M109 35.2941C106.939 36.2206 104.717 36.8294 102.415 37.1206C104.771 35.7176 106.591 33.4941 107.447 30.8206C105.226 32.1441 102.763 33.0706 100.166 33.6C98.0516 31.3235 95.0803 30 91.7075 30C85.4168 30 80.2772 35.0824 80.2772 41.3559C80.2772 42.2559 80.3843 43.1294 80.5717 43.95C71.0421 43.4735 62.5564 38.9471 56.9082 32.0912C55.9178 33.7588 55.3556 35.7176 55.3556 37.7824C55.3556 41.7265 57.3633 45.2206 60.4685 47.2059C58.5679 47.2059 56.8011 46.6765 55.2486 45.8824V45.9618C55.2486 51.4676 59.2103 56.0735 64.457 57.1059C62.7725 57.5617 61.0041 57.6252 59.2906 57.2912C60.0177 59.5477 61.4416 61.5223 63.3622 62.9372C65.2828 64.3521 67.6035 65.1362 69.9981 65.1794C65.939 68.357 60.9074 70.0747 55.7304 70.05C54.8203 70.05 53.9101 69.9971 53 69.8912C58.086 73.1206 64.1358 75 70.6138 75C91.7075 75 103.298 57.6882 103.298 42.6794C103.298 42.1765 103.298 41.7 103.272 41.1971C105.52 39.6088 107.447 37.5971 109 35.2941Z" fill="black"/>
</svg>
